<svg width="438" height="225" viewBox="0 0 438 225" fill="none" xmlns="http://www.w3.org/2000/svg">
<rect width="438" height="225" fill="#73C4D3"/>
<path d="M42 91L38.404 106.925C36.1885 116.737 37.0481 126.992 40.8658 136.298L45.3379 147.199C48.8674 155.802 56.5249 162.023 65.6683 163.716C73.4978 165.166 80.3071 169.955 84.3192 176.833L87.3208 181.978C94.5529 194.376 107.826 202 122.179 202H155.34C169.608 202 183.705 198.887 196.646 192.879L223.28 180.513C229.683 177.54 236.657 176 243.717 176H244.741C255.865 176 266.61 180.048 274.969 187.388C291.293 201.721 315.439 202.62 332.783 189.54L353.912 173.608C360.218 168.852 368.478 167.544 375.945 170.119C386.025 173.595 397.186 169.924 403.235 161.143L409.943 151.406C418.532 138.937 419.195 122.644 411.648 109.519L410.263 107.11C404.344 96.8157 394.492 89.3729 382.972 86.493L377 85C360.505 78.4021 345.523 68.5226 332.961 55.9606L324.488 47.488C321.502 44.5023 318.249 41.7964 314.77 39.4042L291.303 23.2706C279.866 15.4082 264.612 16.045 253.87 24.8332C244.752 32.2938 232.209 33.9816 221.442 29.1966L211.497 24.7763C200.248 19.7771 187.528 19.2064 175.877 23.1782L162.384 27.7782C154.404 30.4986 145.705 30.2104 137.923 26.9678L132.84 24.8498C121.673 20.1973 108.777 23.4669 101.176 32.8774C96.0052 39.2792 88.2172 43 79.9879 43H77.6556C62.1999 43 48.936 54.0081 46.0877 69.199L42 91Z" fill="white"/>
<path d="M393.099 154.543L379.068 158.56C377.9 158.951 377.074 159.039 376.399 158.875C375.555 158.669 374.906 158.029 374.244 156.709L368.379 144.082C363.507 146.467 358.235 148.659 354.345 150.318C353.261 150.73 352.39 151.001 351.546 150.795C351.04 150.672 350.494 150.346 350.036 149.655L342.186 138.572C341.457 137.525 341.235 136.602 341.413 135.873C341.568 135.235 341.977 134.659 342.807 134.186C346.342 132.15 353.071 128.383 359.271 124.583L351.487 107.723C351.011 106.739 350.936 105.948 351.091 105.31C351.313 104.398 352.188 103.743 353.334 103.442L367.809 99.4374C368.573 99.2373 369.208 99.1989 369.798 99.3428C370.896 99.6099 371.753 100.495 372.268 101.682L377.884 113.862L388.992 106.431C389.738 105.937 390.44 105.625 391.199 105.81C391.874 105.974 392.545 106.524 393.274 107.57L402.021 119.741C402.625 120.563 402.83 121.192 402.674 121.83C401.92 124.929 389.431 132.893 387.321 134.214L394.901 150.444C395.315 151.317 395.412 152.017 395.257 152.655C395.035 153.566 394.245 154.243 393.099 154.543Z" fill="#EDF9FF"/>
<path d="M350.153 98.0375C352.893 114.239 337.932 126.085 326.103 128.086C312.525 130.382 298.955 122.593 296.482 107.969C293.587 90.8535 304.912 79.7936 319.572 77.3141C337.982 74.2006 348.326 87.2362 350.153 98.0375ZM325.418 111.878C331.332 110.878 333.183 105.608 332.382 100.872C332.115 99.2935 330.419 91.2904 321.922 92.7274C314.925 93.9108 313.924 100.148 314.556 103.887C315.526 109.62 320.67 112.681 325.418 111.878Z" fill="#EDF9FF"/>
<path d="M251.995 144.456L237.556 146.119C236.602 146.171 235.692 145.453 235.542 144.308L227.573 66.2549L227.562 66.0633C227.509 65.1055 228.242 64.2003 229.104 64.0566L246.401 62.1398L246.574 62.1302C247.529 62.0774 248.27 62.9011 248.415 63.9499L251.086 90.2232C254.319 88.8916 257.843 88.1203 261.487 87.9189C278.142 86.9983 289.692 97.6007 290.645 114.842C291.609 132.274 278.493 145.297 263.313 146.136C259.582 146.342 255.81 145.782 251.995 144.456ZM252.97 108.566L254.983 127.669C256.484 128.067 257.883 128.182 259.27 128.105C265.343 127.769 269.686 122.918 269.326 116.404C269.099 112.286 266.917 105.873 259.804 106.266C257.288 106.405 254.82 107.407 252.97 108.566Z" fill="#EDF9FF"/>
<path d="M179.427 107.103L166.417 102.472C165.071 101.975 164.441 101.31 164.439 100.477C164.437 99.8934 164.705 99.3091 165.151 98.7243L179.168 79.262C178.898 79.0127 178.718 78.5964 178.447 78.097L161.585 42.885C161.315 42.3023 161.134 41.8026 161.133 41.3859C161.13 40.2189 162.203 39.4656 163.547 39.1283L177.787 35.1698C178.145 35.0854 178.503 35.001 178.862 35C180.475 34.9954 181.644 36.0757 182.275 37.491L193.005 59.8835C198.272 52.4496 203.36 45.0162 207.734 38.5852C208.269 37.7501 208.895 37.2482 209.881 37.2454C210.419 37.2438 211.226 37.4082 212.124 37.9058L225.497 44.2861C226.574 44.7832 227.114 45.3651 227.116 46.1153C227.119 47.3657 220.356 64.4733 183.815 106.006C182.922 106.926 182.116 107.428 181.041 107.431C180.593 107.433 180.055 107.351 179.427 107.103Z" fill="#EDF9FF"/>
<path d="M195.548 162.1L188.134 176.388C187.384 177.749 186.563 178.542 185.43 178.684C184.864 178.755 184.156 178.613 183.42 178.245C176.68 174.942 161.431 167.982 155.201 165.077C154.465 164.708 153.672 163.886 153.544 162.865C153.473 162.298 153.628 161.703 154.11 160.952L161.227 149.811C155.863 153.822 151.008 157.309 148.885 158.726L148.248 159.152L151.694 178.415C151.864 179.775 151.1 181.023 149.741 181.193L127.247 185.275C126.001 185.431 124.755 184.665 124.471 183.319L108.121 91.2703L108.092 91.0436C107.95 89.9096 108.842 88.7615 109.96 88.5064L132.469 84.5378L132.695 84.5094C133.941 84.3535 134.975 85.2607 135.244 86.4939L143.767 134.375C147.956 130.165 165.619 113.213 170.602 112.589C171.508 112.476 172.584 112.802 173.675 114.163L184.991 128.294C185.529 128.918 185.84 129.57 185.926 130.251C186.067 131.384 185.516 132.49 184.242 133.341C181.581 135.056 175.565 139.379 169.238 143.971C177.478 145.474 195.532 155.538 196.057 159.733C196.142 160.414 196.001 161.122 195.548 162.1Z" fill="#EDF9FF"/>
<path d="M55.4699 132.274L53.0683 117.727C52.9826 117.53 52.9978 117.242 53.008 117.051C53.0842 115.613 54.5476 115.21 55.1228 115.24L55.5062 115.26C62.0251 115.606 69.302 112.531 69.622 106.491C69.7896 103.327 68.2164 100.36 63.4664 92.0331C59.8508 85.8811 58.4097 80.4212 58.6586 75.7238C59.4612 60.5771 77.169 52.9594 93.2744 53.8127C97.0132 54.0108 98.9102 54.4959 99.3787 56.5395L101.982 70.9054C102.063 71.1981 102.048 71.4857 102.037 71.6774C101.956 73.2113 100.488 73.7103 99.9125 73.6798L99.3373 73.6493C93.1061 73.3191 87.1364 75.3101 86.8469 80.7744C86.6742 84.0338 88.8321 88.6665 92.9117 95.1314C96.6231 101.288 98.0642 106.748 97.8103 111.542C96.9671 127.455 77.392 135.839 60.8073 134.961C59.8486 134.91 58.9858 134.864 58.0323 134.717C56.786 134.651 55.6915 133.536 55.4699 132.274Z" fill="#EDF9FF"/>
<mask id="mask0_0_1" style="mask-type:alpha" maskUnits="userSpaceOnUse" x="53" y="35" width="350" height="151">
<path d="M393.099 154.543L379.068 158.56C377.9 158.951 377.074 159.039 376.399 158.875C375.555 158.669 374.906 158.029 374.244 156.709L368.379 144.082C363.507 146.467 358.235 148.659 354.345 150.318C353.261 150.73 352.39 151.001 351.546 150.795C351.04 150.672 350.494 150.346 350.036 149.655L342.186 138.572C341.457 137.525 341.235 136.602 341.413 135.873C341.568 135.235 341.977 134.659 342.807 134.186C346.342 132.15 353.071 128.383 359.271 124.583L351.487 107.723C351.011 106.739 350.936 105.948 351.091 105.31C351.313 104.398 352.188 103.743 353.334 103.442L367.809 99.4374C368.573 99.2373 369.208 99.1989 369.798 99.3428C370.896 99.6099 371.753 100.495 372.268 101.682L377.884 113.862L388.992 106.431C389.738 105.937 390.44 105.625 391.199 105.81C391.874 105.974 392.545 106.524 393.274 107.57L402.021 119.741C402.625 120.563 402.83 121.192 402.674 121.83C401.92 124.929 389.431 132.893 387.321 134.214L394.901 150.444C395.315 151.317 395.412 152.017 395.257 152.655C395.035 153.566 394.245 154.243 393.099 154.543Z" fill="#020D12"/>
<path d="M350.153 98.0375C352.893 114.239 337.932 126.085 326.103 128.086C312.525 130.382 298.955 122.593 296.482 107.969C293.587 90.8535 304.912 79.7936 319.572 77.3141C337.982 74.2006 348.326 87.2362 350.153 98.0375ZM325.418 111.878C331.332 110.878 333.183 105.608 332.382 100.872C332.115 99.2935 330.419 91.2904 321.922 92.7274C314.925 93.9108 313.924 100.148 314.556 103.887C315.526 109.62 320.67 112.681 325.418 111.878Z" fill="#020D12"/>
<path d="M251.995 144.456L237.556 146.119C236.602 146.171 235.692 145.453 235.542 144.308L227.573 66.2549L227.562 66.0633C227.509 65.1055 228.242 64.2003 229.104 64.0566L246.401 62.1398L246.574 62.1302C247.529 62.0774 248.27 62.9011 248.415 63.9499L251.086 90.2232C254.319 88.8916 257.843 88.1203 261.487 87.9189C278.142 86.9983 289.692 97.6007 290.645 114.842C291.609 132.274 278.493 145.297 263.313 146.136C259.582 146.342 255.81 145.782 251.995 144.456ZM252.97 108.566L254.983 127.669C256.484 128.067 257.883 128.182 259.27 128.105C265.343 127.769 269.686 122.918 269.326 116.404C269.099 112.286 266.917 105.873 259.804 106.266C257.288 106.405 254.82 107.407 252.97 108.566Z" fill="#020D12"/>
<path d="M179.427 107.103L166.417 102.472C165.071 101.975 164.441 101.31 164.439 100.477C164.437 99.8934 164.705 99.3091 165.151 98.7243L179.168 79.262C178.898 79.0127 178.718 78.5964 178.447 78.097L161.585 42.885C161.315 42.3023 161.134 41.8026 161.133 41.3859C161.13 40.2189 162.203 39.4656 163.547 39.1283L177.787 35.1698C178.145 35.0854 178.503 35.001 178.862 35C180.475 34.9954 181.644 36.0757 182.275 37.491L193.005 59.8835C198.272 52.4496 203.36 45.0162 207.734 38.5852C208.269 37.7501 208.895 37.2482 209.881 37.2454C210.419 37.2438 211.226 37.4082 212.124 37.9058L225.497 44.2861C226.574 44.7832 227.114 45.3651 227.116 46.1153C227.119 47.3657 220.356 64.4733 183.815 106.006C182.922 106.926 182.116 107.428 181.041 107.431C180.593 107.433 180.055 107.351 179.427 107.103Z" fill="#020D12"/>
<path d="M195.548 162.1L188.134 176.388C187.384 177.749 186.563 178.542 185.43 178.684C184.864 178.755 184.156 178.613 183.42 178.245C176.68 174.942 161.431 167.982 155.201 165.077C154.465 164.708 153.672 163.886 153.544 162.865C153.473 162.298 153.628 161.703 154.11 160.952L161.227 149.811C155.863 153.822 151.008 157.309 148.885 158.726L148.248 159.152L151.694 178.415C151.864 179.775 151.1 181.023 149.741 181.193L127.247 185.275C126.001 185.431 124.755 184.665 124.471 183.319L108.121 91.2703L108.092 91.0436C107.95 89.9096 108.842 88.7615 109.96 88.5064L132.469 84.5378L132.695 84.5094C133.941 84.3535 134.975 85.2607 135.244 86.4939L143.767 134.375C147.956 130.165 165.619 113.213 170.602 112.589C171.508 112.476 172.584 112.802 173.675 114.163L184.991 128.294C185.529 128.918 185.84 129.57 185.926 130.251C186.067 131.384 185.516 132.49 184.242 133.341C181.581 135.056 175.565 139.379 169.238 143.971C177.478 145.474 195.532 155.538 196.057 159.733C196.142 160.414 196.001 161.122 195.548 162.1Z" fill="#020D12"/>
<path d="M55.4699 132.274L53.0683 117.727C52.9826 117.53 52.9978 117.242 53.008 117.051C53.0842 115.613 54.5476 115.21 55.1228 115.24L55.5062 115.26C62.0251 115.606 69.302 112.531 69.622 106.491C69.7896 103.327 68.2164 100.36 63.4664 92.0331C59.8508 85.8811 58.4097 80.4212 58.6586 75.7238C59.4612 60.5771 77.169 52.9594 93.2744 53.8127C97.0132 54.0108 98.9102 54.4959 99.3787 56.5395L101.982 70.9054C102.063 71.1981 102.048 71.4857 102.037 71.6774C101.956 73.2113 100.488 73.7103 99.9125 73.6798L99.3373 73.6493C93.1061 73.3191 87.1364 75.3101 86.8469 80.7744C86.6742 84.0338 88.8321 88.6665 92.9117 95.1314C96.6231 101.288 98.0642 106.748 97.8103 111.542C96.9671 127.455 77.392 135.839 60.8073 134.961C59.8486 134.91 58.9858 134.864 58.0323 134.717C56.786 134.651 55.6915 133.536 55.4699 132.274Z" fill="#020D12"/>
</mask>
<g mask="url(#mask0_0_1)">
<path d="M79 111L16 63L-71 270H441L433 169L377 133L355 138V88L312 106L281 133L259 138L244 116L194 73L158 101L177 152L134 162L79 111Z" fill="#8FE3FF" fill-opacity="0.25"/>
<path d="M79 118L16 70L-71 277H441L433 176L377 140L355 145V95L312 113L281 140L259 145L244 123L194 80L158 108L177 159L134 169L79 118Z" fill="#8FE3FF" fill-opacity="0.25"/>
<path d="M79 125L16 77L-71 284H441L433 183L377 147L355 152V102L312 120L281 147L259 152L244 130L194 87L158 115L177 166L134 176L79 125Z" fill="#8FE3FF" fill-opacity="0.25"/>
<path d="M79 98L16 50L-71 257H441L433 156L377 120L355 125V75L312 93L281 120L259 125L244 103L194 60L158 88L177 139L134 149L79 98Z" fill="#8FE3FF" fill-opacity="0.25"/>
<path d="M71 127L37 81V42L452 -44L442 92L411 120L369 132L338 92L291 99V81L216 140L230 43.7544L186 73L152 51L169 127L152 112L130 147L71 127Z" fill="#73ACAA" fill-opacity="0.25"/>
<path d="M71 114L37 68V29L452 -57L442 79L411 107L369 119L338 79L291 86V68L216 127L230 30.7544L186 60L152 38L169 114L152 99L130 134L71 114Z" fill="#73ACAA" fill-opacity="0.25"/>
<path d="M71 101L37 55V16L452 -70L442 66L411 94L369 106L338 66L291 73V55L216 114L230 17.7544L186 47L152 25L169 101L152 86L130 121L71 101Z" fill="#73ACAA" fill-opacity="0.25"/>
</g>
<g clip-path="url(#clip0_0_1)">
<path d="M299 63.8C301.43 63.3065 303.591 61.9276 305.061 59.9309C306.532 57.9343 307.209 55.4624 306.959 52.995C306.71 50.5277 305.553 48.2409 303.713 46.5787C301.872 44.9166 299.48 43.9975 297 44H294.48C293.817 41.4346 292.528 39.074 290.728 37.13C288.928 35.186 286.673 33.7195 284.166 32.8621C281.659 32.0048 278.978 31.7835 276.364 32.218C273.751 32.6526 271.286 33.7294 269.191 35.3518C267.096 36.9742 265.437 39.0915 264.363 41.5134C263.288 43.9354 262.832 46.5862 263.036 49.228C263.239 51.8697 264.095 54.4197 265.527 56.6489C266.959 58.8782 268.922 60.7169 271.24 62M287 52L279 64H291L283 76" stroke="#5A98AA" stroke-width="4" stroke-linecap="round" stroke-linejoin="round"/>
</g>
<g clip-path="url(#clip1_0_1)">
<path d="M200.089 131.14L199.295 134.206M202.472 121.944L201.678 125.009M212.351 134.318L211.556 137.383M214.734 125.121L213.939 128.187M205.425 135.794L204.631 138.86M207.808 126.598L207.014 129.664M219.443 132.197C221.237 131.909 222.877 131.013 224.088 129.658C225.3 128.304 226.008 126.574 226.095 124.759C226.182 122.944 225.641 121.154 224.565 119.69C223.488 118.226 221.941 117.177 220.182 116.72L218.251 116.219C218.253 114.212 217.777 112.233 216.864 110.445C215.951 108.658 214.626 107.113 212.998 105.938C211.371 104.763 209.487 103.992 207.503 103.688C205.519 103.384 203.491 103.556 201.586 104.189C199.682 104.823 197.955 105.9 196.548 107.332C195.142 108.764 194.095 110.509 193.496 112.425C192.896 114.341 192.761 116.371 193.1 118.35C193.439 120.328 194.244 122.198 195.448 123.804" stroke="#5A98AA" stroke-width="4" stroke-linecap="round" stroke-linejoin="round"/>
</g>
<g clip-path="url(#clip2_0_1)">
<path d="M146 65.16C148.102 64.2392 149.824 62.6231 150.876 60.5831C151.928 58.543 152.246 56.2032 151.777 53.9564C151.308 51.7095 150.08 49.6924 148.3 48.2437C146.52 46.7949 144.295 46.0027 142 46H139.48C138.846 43.545 137.638 41.2759 135.955 39.3796C134.272 37.4833 132.162 36.0142 129.8 35.0932C127.437 34.1723 124.89 33.826 122.367 34.0829C119.845 34.3397 117.42 35.1924 115.291 36.5706C113.163 37.9487 111.393 39.813 110.127 42.0096C108.86 44.2062 108.134 46.6723 108.008 49.2047C107.882 51.7371 108.359 54.2631 109.401 56.5747C110.443 58.8863 112.019 60.9172 114 62.5M122 62H122.02M122 70H122.02M130 66H130.02M130 74H130.02M138 62H138.02M138 70H138.02" stroke="#5A98AA" stroke-width="4" stroke-linecap="round" stroke-linejoin="round"/>
</g>
<g clip-path="url(#clip3_0_1)">
<path d="M318.975 161.968L317.43 177.893M303.049 160.423L301.505 176.349M310.626 165.177L309.081 181.102M326.246 169.867C328.427 169.153 330.297 167.711 331.541 165.782C332.785 163.853 333.328 161.555 333.078 159.273C332.828 156.992 331.801 154.866 330.168 153.252C328.536 151.638 326.399 150.635 324.114 150.41L321.606 150.167C321.212 147.662 320.229 145.287 318.736 143.237C317.244 141.187 315.286 139.521 313.024 138.377C310.762 137.232 308.259 136.641 305.724 136.653C303.189 136.665 300.692 137.28 298.441 138.446C296.19 139.613 294.248 141.297 292.775 143.361C291.303 145.425 290.342 147.81 289.972 150.318C289.602 152.827 289.833 155.387 290.647 157.788C291.461 160.19 292.833 162.363 294.652 164.13" stroke="#5A98AA" stroke-width="4" stroke-linecap="round" stroke-linejoin="round"/>
</g>
<defs>
<clipPath id="clip0_0_1">
<rect width="48" height="48" fill="white" transform="translate(261 30)"/>
</clipPath>
<clipPath id="clip1_0_1">
<rect width="38" height="38" fill="white" transform="translate(195.374 98.8414) rotate(14.5278)"/>
</clipPath>
<clipPath id="clip2_0_1">
<rect width="48" height="48" fill="white" transform="translate(106 30)"/>
</clipPath>
<clipPath id="clip3_0_1">
<rect width="48" height="48" fill="white" transform="translate(289.634 133) rotate(5.54032)"/>
</clipPath>
</defs>
</svg>
